<?xml version="1.0" encoding="utf-8"?>
<!-- Generator: Adobe Illustrator 26.3.1, SVG Export Plug-In . SVG Version: 6.00 Build 0)  -->
<svg xmlns="http://www.w3.org/2000/svg"
    xmlns:xlink="http://www.w3.org/1999/xlink" width="500" zoomAndPan="magnify" viewBox="0 0 375 374.999991" height="500" preserveAspectRatio="xMidYMid meet" version="1.0">
    <defs>
        <clipPath id="6a1b2904f9">
            <path d="M 293 280 L 337 280 L 337 324.816406 L 293 324.816406 Z M 293 280 " clip-rule="nonzero"/>
        </clipPath>
        <clipPath id="dcf0274011">
            <path d="M 38 50.316406 L 302 50.316406 L 302 291 L 38 291 Z M 38 50.316406 " clip-rule="nonzero"/>
        </clipPath>
    </defs>
    <g clip-path="url(#6a1b2904f9)">
        <path fill="#94b9ff" d="M 315.03125 324.675781 C 327.097656 324.675781 336.878906 314.898438 336.878906 302.832031 C 336.878906 290.765625 327.097656 280.984375 315.03125 280.984375 C 302.964844 280.984375 293.183594 290.765625 293.183594 302.832031 C 293.183594 314.898438 302.964844 324.675781 315.03125 324.675781 Z M 315.03125 324.675781 " fill-opacity="1" fill-rule="nonzero"/>
    </g>
    <g clip-path="url(#dcf0274011)">
        <path fill="#94b9ff" d="M 128.765625 286.792969 C 108.585938 281.589844 89.941406 271.015625 74.851562 256.214844 C 51.953125 233.738281 39.175781 203.683594 38.867188 171.597656 C 38.238281 105.351562 91.621094 50.945312 157.859375 50.316406 C 168.453125 50.214844 178.996094 51.496094 189.179688 54.125 C 222.367188 62.6875 249.824219 84.75 265.429688 114.632812 L 223.246094 128.921875 C 212.96875 112.976562 197.035156 101.28125 178.183594 96.421875 C 171.703125 94.753906 164.992188 93.929688 158.269531 94 C 116.121094 94.398438 82.144531 129.023438 82.546875 171.171875 C 82.878906 205.71875 106.472656 235.875 139.921875 244.496094 C 146.367188 246.152344 153.023438 246.964844 159.722656 246.90625 C 171.871094 246.792969 183.453125 243.925781 194.128906 238.390625 L 194.585938 238.152344 L 195.023438 237.886719 C 210.03125 229.027344 235.511719 220.730469 257.894531 226.492188 C 267.382812 228.9375 275.890625 233.796875 283.160156 240.941406 L 301.246094 258.695312 L 270.640625 289.867188 L 254.054688 273.589844 C 250.292969 269.898438 245.148438 267.964844 239.878906 268.261719 C 232.347656 268.695312 222.824219 272.355469 217.175781 275.554688 L 215.566406 276.46875 C 198.621094 285.523438 179.453125 290.40625 160.132812 290.589844 C 149.488281 290.691406 138.9375 289.410156 128.777344 286.792969 Z M 128.765625 286.792969 " fill-opacity="1" fill-rule="nonzero"/>
    </g>
</svg>
